<?xml version="1.0" standalone="no"?>
<!DOCTYPE svg PUBLIC "-//W3C//DTD SVG 20010904//EN"
 "http://www.w3.org/TR/2001/REC-SVG-20010904/DTD/svg10.dtd">
<svg version="1.0" xmlns="http://www.w3.org/2000/svg"
 width="1280.000000pt" height="1280.000000pt" viewBox="0 0 1280.000000 1280.000000"
 preserveAspectRatio="xMidYMid meet">
<metadata>
Created by potrace 1.11, written by Peter Selinger 2001-2013
</metadata>
<g transform="translate(0.000000,1280.000000) scale(0.100000,-0.100000)"
fill="#000000" stroke="none">
<path d="M796 12723 c-3 -38 -13 -162 -21 -278 -22 -310 -44 -595 -60 -810 -8
-104 -31 -408 -50 -675 -19 -267 -42 -575 -50 -685 -35 -461 -63 -836 -110
-1480 -19 -264 -42 -569 -50 -677 -8 -109 -22 -289 -30 -400 -9 -112 -22 -291
-30 -398 -8 -107 -31 -413 -50 -680 -19 -267 -42 -570 -50 -675 -8 -104 -21
-284 -30 -400 -8 -115 -20 -266 -25 -335 -6 -69 -15 -190 -20 -270 -15 -219
-98 -1337 -115 -1565 -30 -388 -45 -594 -70 -935 -14 -190 -28 -371 -31 -402
l-7 -58 1011 0 1011 0 10 53 c5 28 31 171 56 317 25 146 57 328 71 405 13 77
51 295 84 485 33 190 69 397 80 460 11 63 52 297 91 520 72 419 111 642 180
1035 37 210 57 323 134 770 55 316 65 378 65 386 0 5 4 9 9 9 5 0 12 -19 16
-42 7 -45 77 -437 151 -848 24 -135 53 -299 64 -365 11 -66 25 -140 30 -165 5
-25 30 -160 55 -300 24 -140 63 -356 85 -480 23 -124 50 -277 61 -340 11 -63
63 -353 115 -645 52 -291 102 -568 110 -615 8 -47 24 -134 35 -195 11 -60 29
-162 40 -225 11 -63 24 -139 30 -167 l10 -53 799 0 799 0 10 53 c10 53 68 380
101 567 38 211 211 1177 225 1255 8 44 40 220 70 390 30 171 73 411 95 535 23
124 54 299 70 390 16 91 47 264 69 385 56 309 138 772 146 823 4 23 10 42 15
42 5 0 11 -19 15 -42 7 -46 80 -455 150 -848 25 -135 54 -299 65 -365 11 -66
25 -140 30 -165 5 -25 30 -160 55 -300 24 -140 63 -356 85 -480 23 -124 50
-277 61 -340 11 -63 63 -353 115 -645 52 -291 103 -577 114 -635 33 -187 91
-514 101 -567 l10 -53 1600 0 1599 0 -5 23 c-3 12 -50 267 -105 567 -56 300
-112 604 -125 675 -21 111 -76 408 -129 700 -9 44 -29 152 -45 240 -17 88 -66
354 -110 590 -44 237 -85 457 -91 490 -6 33 -17 94 -25 135 -22 120 -80 435
-129 705 -26 138 -50 270 -56 295 -5 25 -18 95 -29 155 -22 117 -168 910 -201
1085 -66 353 -112 603 -135 730 -14 80 -32 177 -40 215 -8 39 -21 108 -29 155
-9 47 -40 218 -70 380 -30 162 -71 383 -91 490 -20 107 -56 303 -81 435 -72
389 -135 726 -144 780 -5 28 -56 304 -114 615 -58 311 -121 653 -141 760 -67
365 -86 465 -96 518 l-10 52 -1399 0 -1398 0 -6 -27 c-5 -26 -50 -289 -177
-1043 -27 -162 -79 -468 -115 -680 -36 -212 -70 -410 -74 -440 -5 -30 -45
-266 -89 -525 -162 -952 -181 -1068 -252 -1480 -39 -231 -73 -437 -76 -457 -3
-21 -9 -38 -13 -38 -3 0 -19 73 -33 163 -15 89 -36 212 -46 272 -26 147 -143
838 -242 1425 -44 261 -86 511 -94 555 -8 44 -46 269 -85 500 -39 231 -87 512
-106 625 -19 113 -69 405 -110 650 -41 245 -77 457 -80 473 l-6 27 -1398 0
-1398 0 -6 -67z"/>
</g>
</svg>
