<svg width="16" height="16" viewBox="0 0 16 16" fill="none" xmlns="http://www.w3.org/2000/svg">
<path d="M6.5 0C6.10218 0 5.72064 0.194505 5.43934 0.540726C5.15804 0.886947 5 1.35652 5 1.84615V2.46154H1.5C1.10218 2.46154 0.720644 2.65604 0.43934 3.00226C0.158035 3.34849 0 3.81806 0 4.30769L0 14.1538C0 14.6435 0.158035 15.1131 0.43934 15.4593C0.720644 15.8055 1.10218 16 1.5 16H14.5C14.8978 16 15.2794 15.8055 15.5607 15.4593C15.842 15.1131 16 14.6435 16 14.1538V4.30769C16 3.81806 15.842 3.34849 15.5607 3.00226C15.2794 2.65604 14.8978 2.46154 14.5 2.46154H11V1.84615C11 1.35652 10.842 0.886947 10.5607 0.540726C10.2794 0.194505 9.89782 0 9.5 0H6.5ZM6.5 1.23077H9.5C9.63261 1.23077 9.75979 1.2956 9.85355 1.41101C9.94732 1.52642 10 1.68294 10 1.84615V2.46154H6V1.84615C6 1.68294 6.05268 1.52642 6.14645 1.41101C6.24021 1.2956 6.36739 1.23077 6.5 1.23077ZM8.386 9.74031L15 7.57046V14.1538C15 14.3171 14.9473 14.4736 14.8536 14.589C14.7598 14.7044 14.6326 14.7692 14.5 14.7692H1.5C1.36739 14.7692 1.24021 14.7044 1.14645 14.589C1.05268 14.4736 1 14.3171 1 14.1538V7.56923L7.614 9.74031C7.86693 9.82321 8.13307 9.82321 8.386 9.74031ZM1.5 3.69231H14.5C14.6326 3.69231 14.7598 3.75714 14.8536 3.87255C14.9473 3.98796 15 4.14448 15 4.30769V6.29662L8.129 8.55138C8.04448 8.57916 7.95552 8.57916 7.871 8.55138L1 6.29662V4.30769C1 4.14448 1.05268 3.98796 1.14645 3.87255C1.24021 3.75714 1.36739 3.69231 1.5 3.69231Z" fill="#250404"/>
</svg>
