<svg width="28" height="23" viewBox="0 0 28 23" fill="none" xmlns="http://www.w3.org/2000/svg">
<path fill-rule="evenodd" clip-rule="evenodd" d="M0.25 21.75C0.25 21.4185 0.381696 21.1005 0.616117 20.8661C0.850537 20.6317 1.16848 20.5 1.5 20.5H26.5C26.8315 20.5 27.1495 20.6317 27.3839 20.8661C27.6183 21.1005 27.75 21.4185 27.75 21.75C27.75 22.0815 27.6183 22.3995 27.3839 22.6339C27.1495 22.8683 26.8315 23 26.5 23H1.5C1.16848 23 0.850537 22.8683 0.616117 22.6339C0.381696 22.3995 0.25 22.0815 0.25 21.75ZM0.25 11.75C0.25 11.4185 0.381696 11.1005 0.616117 10.8661C0.850537 10.6317 1.16848 10.5 1.5 10.5H26.5C26.8315 10.5 27.1495 10.6317 27.3839 10.8661C27.6183 11.1005 27.75 11.4185 27.75 11.75C27.75 12.0815 27.6183 12.3995 27.3839 12.6339C27.1495 12.8683 26.8315 13 26.5 13H1.5C1.16848 13 0.850537 12.8683 0.616117 12.6339C0.381696 12.3995 0.25 12.0815 0.25 11.75ZM0.25 1.75C0.25 1.41848 0.381696 1.10054 0.616117 0.866117C0.850537 0.631696 1.16848 0.5 1.5 0.5H26.5C26.8315 0.5 27.1495 0.631696 27.3839 0.866117C27.6183 1.10054 27.75 1.41848 27.75 1.75C27.75 2.08152 27.6183 2.39946 27.3839 2.63388C27.1495 2.8683 26.8315 3 26.5 3H1.5C1.16848 3 0.850537 2.8683 0.616117 2.63388C0.381696 2.39946 0.25 2.08152 0.25 1.75Z" fill="white"/>
</svg>
