<svg width="16" height="16" viewBox="0 0 16 16" fill="none" xmlns="http://www.w3.org/2000/svg">
<path d="M0 1.71429C0 1.25963 0.180612 0.823594 0.502103 0.502103C0.823594 0.180612 1.25963 0 1.71429 0H5.14286C5.59751 0 6.03355 0.180612 6.35504 0.502103C6.67653 0.823594 6.85714 1.25963 6.85714 1.71429V5.14286C6.85714 5.59751 6.67653 6.03355 6.35504 6.35504C6.03355 6.67653 5.59751 6.85714 5.14286 6.85714H1.71429C1.25963 6.85714 0.823594 6.67653 0.502103 6.35504C0.180612 6.03355 0 5.59751 0 5.14286V1.71429ZM1.71429 1.14286C1.56273 1.14286 1.41739 1.20306 1.31022 1.31022C1.20306 1.41739 1.14286 1.56273 1.14286 1.71429V5.14286C1.14286 5.29441 1.20306 5.43975 1.31022 5.54692C1.41739 5.65408 1.56273 5.71429 1.71429 5.71429H5.14286C5.29441 5.71429 5.43975 5.65408 5.54692 5.54692C5.65408 5.43975 5.71429 5.29441 5.71429 5.14286V1.71429C5.71429 1.56273 5.65408 1.41739 5.54692 1.31022C5.43975 1.20306 5.29441 1.14286 5.14286 1.14286H1.71429ZM9.14286 1.71429C9.14286 1.25963 9.32347 0.823594 9.64496 0.502103C9.96645 0.180612 10.4025 0 10.8571 0H14.2857C14.7404 0 15.1764 0.180612 15.4979 0.502103C15.8194 0.823594 16 1.25963 16 1.71429V5.14286C16 5.59751 15.8194 6.03355 15.4979 6.35504C15.1764 6.67653 14.7404 6.85714 14.2857 6.85714H10.8571C10.4025 6.85714 9.96645 6.67653 9.64496 6.35504C9.32347 6.03355 9.14286 5.59751 9.14286 5.14286V1.71429ZM10.8571 1.14286C10.7056 1.14286 10.5602 1.20306 10.4531 1.31022C10.3459 1.41739 10.2857 1.56273 10.2857 1.71429V5.14286C10.2857 5.29441 10.3459 5.43975 10.4531 5.54692C10.5602 5.65408 10.7056 5.71429 10.8571 5.71429H14.2857C14.4373 5.71429 14.5826 5.65408 14.6898 5.54692C14.7969 5.43975 14.8571 5.29441 14.8571 5.14286V1.71429C14.8571 1.56273 14.7969 1.41739 14.6898 1.31022C14.5826 1.20306 14.4373 1.14286 14.2857 1.14286H10.8571ZM0 10.8571C0 10.4025 0.180612 9.96645 0.502103 9.64496C0.823594 9.32347 1.25963 9.14286 1.71429 9.14286H5.14286C5.59751 9.14286 6.03355 9.32347 6.35504 9.64496C6.67653 9.96645 6.85714 10.4025 6.85714 10.8571V14.2857C6.85714 14.7404 6.67653 15.1764 6.35504 15.4979C6.03355 15.8194 5.59751 16 5.14286 16H1.71429C1.25963 16 0.823594 15.8194 0.502103 15.4979C0.180612 15.1764 0 14.7404 0 14.2857V10.8571ZM1.71429 10.2857C1.56273 10.2857 1.41739 10.3459 1.31022 10.4531C1.20306 10.5602 1.14286 10.7056 1.14286 10.8571V14.2857C1.14286 14.4373 1.20306 14.5826 1.31022 14.6898C1.41739 14.7969 1.56273 14.8571 1.71429 14.8571H5.14286C5.29441 14.8571 5.43975 14.7969 5.54692 14.6898C5.65408 14.5826 5.71429 14.4373 5.71429 14.2857V10.8571C5.71429 10.7056 5.65408 10.5602 5.54692 10.4531C5.43975 10.3459 5.29441 10.2857 5.14286 10.2857H1.71429ZM9.14286 10.8571C9.14286 10.4025 9.32347 9.96645 9.64496 9.64496C9.96645 9.32347 10.4025 9.14286 10.8571 9.14286H14.2857C14.7404 9.14286 15.1764 9.32347 15.4979 9.64496C15.8194 9.96645 16 10.4025 16 10.8571V14.2857C16 14.7404 15.8194 15.1764 15.4979 15.4979C15.1764 15.8194 14.7404 16 14.2857 16H10.8571C10.4025 16 9.96645 15.8194 9.64496 15.4979C9.32347 15.1764 9.14286 14.7404 9.14286 14.2857V10.8571ZM10.8571 10.2857C10.7056 10.2857 10.5602 10.3459 10.4531 10.4531C10.3459 10.5602 10.2857 10.7056 10.2857 10.8571V14.2857C10.2857 14.4373 10.3459 14.5826 10.4531 14.6898C10.5602 14.7969 10.7056 14.8571 10.8571 14.8571H14.2857C14.4373 14.8571 14.5826 14.7969 14.6898 14.6898C14.7969 14.5826 14.8571 14.4373 14.8571 14.2857V10.8571C14.8571 10.7056 14.7969 10.5602 14.6898 10.4531C14.5826 10.3459 14.4373 10.2857 14.2857 10.2857H10.8571Z" fill="#250404"/>
</svg>
