<svg width="18" height="18" viewBox="0 0 18 18" fill="none" xmlns="http://www.w3.org/2000/svg">
<path d="M0.615036 0.614975C0.731151 0.498567 0.86909 0.40621 1.02095 0.343194C1.17282 0.280178 1.33562 0.247742 1.50004 0.247742C1.66445 0.247742 1.82726 0.280178 1.97912 0.343194C2.13098 0.40621 2.26892 0.498567 2.38504 0.614975L9.00004 7.23248L15.615 0.614975C15.7313 0.498756 15.8692 0.406565 16.0211 0.343667C16.1729 0.280769 16.3357 0.248396 16.5 0.248396C16.6644 0.248396 16.8271 0.280769 16.979 0.343667C17.1308 0.406565 17.2688 0.498756 17.385 0.614975C17.5013 0.731195 17.5934 0.869168 17.6563 1.02102C17.7192 1.17287 17.7516 1.33562 17.7516 1.49998C17.7516 1.66434 17.7192 1.82709 17.6563 1.97893C17.5934 2.13078 17.5013 2.26876 17.385 2.38498L10.7675 8.99998L17.385 15.615C17.5013 15.7312 17.5934 15.8692 17.6563 16.021C17.7192 16.1729 17.7516 16.3356 17.7516 16.5C17.7516 16.6643 17.7192 16.8271 17.6563 16.9789C17.5934 17.1308 17.5013 17.2688 17.385 17.385C17.2688 17.5012 17.1308 17.5934 16.979 17.6563C16.8271 17.7192 16.6644 17.7516 16.5 17.7516C16.3357 17.7516 16.1729 17.7192 16.0211 17.6563C15.8692 17.5934 15.7313 17.5012 15.615 17.385L9.00004 10.7675L2.38504 17.385C2.26882 17.5012 2.13084 17.5934 1.979 17.6563C1.82715 17.7192 1.6644 17.7516 1.50004 17.7516C1.33568 17.7516 1.17293 17.7192 1.02108 17.6563C0.869229 17.5934 0.731256 17.5012 0.615036 17.385C0.498817 17.2688 0.406626 17.1308 0.343728 16.9789C0.28083 16.8271 0.248457 16.6643 0.248457 16.5C0.248457 16.3356 0.28083 16.1729 0.343728 16.021C0.406626 15.8692 0.498817 15.7312 0.615036 15.615L7.23254 8.99998L0.615036 2.38498C0.498628 2.26886 0.406271 2.13092 0.343255 1.97906C0.280239 1.8272 0.247803 1.66439 0.247803 1.49998C0.247803 1.33556 0.280239 1.17275 0.343255 1.02089C0.406271 0.869029 0.498628 0.73109 0.615036 0.614975Z" fill="white"/>
</svg>
