<svg width="129" height="27" viewBox="0 0 129 27" fill="none" xmlns="http://www.w3.org/2000/svg">
<path d="M0 27H5.05291L6.99999 15.8261L8.99999 27H13L15 15.8261L17.0001 27L25 27L20 0.0217567H13L11.0001 11.8247L8.99999 0.0217567H2L0 27Z" fill="#6B6B6B"/>
<path d="M27.2693 5.28988V27H44.2616V21.1257H36.322V15.8261H44.2616V10.8161H36.322V5.28988H44.2616V0.0217567H35.6204L27.2693 5.28988Z" fill="#6B6B6B"/>
<path d="M46.1554 5.28988V27H60.198L67.2193 21.7319V7.78927C67.2193 6.21583 66.4787 4.73417 65.2201 3.78986L61.5316 1.02234C60.666 0.372863 59.613 0.0217567 58.5308 0.0217567H53.1767L46.1554 5.28988ZM55.0493 21.1257V5.28988L58.1243 7.85415V21.1257H55.0493Z" fill="#6B6B6B"/>
<path d="M77.2559 21.1257V0L69.2315 0.0217567V21.9089L77.2559 27H79.262L87.2863 21.9089V0.0217567L79.262 0V21.1257H77.2559Z" fill="#6B6B6B"/>
<path d="M89.0499 5.28988V27H106.042V21.1257H98.1027V15.8261H106.042V10.8161H98.1027V5.28988H106.042V0.0217567H97.4011L89.0499 5.28988Z" fill="#6B6B6B"/>
<path d="M107.936 5.28988V27H121.979L129 21.7319V7.78927C129 6.21583 128.259 4.73416 127.001 3.78985L123.312 1.02234C122.447 0.372862 121.394 0.0217567 120.311 0.0217567H114.957L107.936 5.28988ZM116.83 21.1257V5.28988L119.905 7.85415V21.1257H116.83Z" fill="#6B6B6B"/>
</svg>
