<svg>
    <symbol id="agreement" viewBox="0 0 28 28" fill="none" xmlns="http://www.w3.org/2000/svg">
        <path fill-rule="evenodd" clip-rule="evenodd" d="M18.9946 14.2555C19.0761 14.3368 19.1408 14.4333 19.1849 14.5396C19.229 14.6459 19.2517 14.7599 19.2517 14.875C19.2517 14.9901 19.229 15.104 19.1849 15.2103C19.1408 15.3166 19.0761 15.4132 18.9946 15.4945L13.7446 20.7445C13.6633 20.826 13.5668 20.8906 13.4605 20.9347C13.3542 20.9788 13.2402 21.0015 13.1251 21.0015C13.01 21.0015 12.8961 20.9788 12.7898 20.9347C12.6835 20.8906 12.5869 20.826 12.5056 20.7445L9.88063 18.1195C9.79928 18.0381 9.73474 17.9415 9.69071 17.8352C9.64668 17.729 9.62402 17.615 9.62402 17.5C9.62402 17.3849 9.64668 17.271 9.69071 17.1647C9.73474 17.0584 9.79928 16.9618 9.88063 16.8805C10.0449 16.7162 10.2678 16.6239 10.5001 16.6239C10.6152 16.6239 10.7291 16.6465 10.8354 16.6906C10.9417 16.7346 11.0383 16.7991 11.1196 16.8805L13.1251 18.8877L17.7556 14.2555C17.8369 14.174 17.9335 14.1093 18.0398 14.0652C18.1461 14.0211 18.26 13.9984 18.3751 13.9984C18.4902 13.9984 18.6042 14.0211 18.7105 14.0652C18.8168 14.1093 18.9133 14.174 18.9946 14.2555Z" fill="#DA1713"/>
        <path d="M14 1.75C15.1603 1.75 16.2731 2.21094 17.0936 3.03141C17.9141 3.85188 18.375 4.96468 18.375 6.125V7H9.625V6.125C9.625 4.96468 10.0859 3.85188 10.9064 3.03141C11.7269 2.21094 12.8397 1.75 14 1.75ZM20.125 7V6.125C20.125 4.50055 19.4797 2.94263 18.331 1.79397C17.1824 0.645311 15.6245 0 14 0C12.3755 0 10.8176 0.645311 9.66897 1.79397C8.52031 2.94263 7.875 4.50055 7.875 6.125V7H1.75V24.5C1.75 25.4283 2.11875 26.3185 2.77513 26.9749C3.4315 27.6313 4.32174 28 5.25 28H22.75C23.6783 28 24.5685 27.6313 25.2249 26.9749C25.8813 26.3185 26.25 25.4283 26.25 24.5V7H20.125ZM3.5 8.75H24.5V24.5C24.5 24.9641 24.3156 25.4092 23.9874 25.7374C23.6592 26.0656 23.2141 26.25 22.75 26.25H5.25C4.78587 26.25 4.34075 26.0656 4.01256 25.7374C3.68437 25.4092 3.5 24.9641 3.5 24.5V8.75Z" fill="#DA1713"/>
    </symbol>

    <symbol id="documentation" viewBox="0 0 28 28" fill="none" xmlns="http://www.w3.org/2000/svg">
        <path d="M7 19.25C7 18.7859 7.18437 18.3408 7.51256 18.0126C7.84075 17.6844 8.28587 17.5 8.75 17.5C9.21413 17.5 9.65925 17.6844 9.98744 18.0126C10.3156 18.3408 10.5 18.7859 10.5 19.25V21C10.5 21.4641 10.3156 21.9092 9.98744 22.2374C9.65925 22.5656 9.21413 22.75 8.75 22.75C8.28587 22.75 7.84075 22.5656 7.51256 22.2374C7.18437 21.9092 7 21.4641 7 21V19.25ZM17.5 12.25C17.5 11.7859 17.6844 11.3408 18.0126 11.0126C18.3408 10.6844 18.7859 10.5 19.25 10.5C19.7141 10.5 20.1592 10.6844 20.4874 11.0126C20.8156 11.3408 21 11.7859 21 12.25V21C21 21.4641 20.8156 21.9092 20.4874 22.2374C20.1592 22.5656 19.7141 22.75 19.25 22.75C18.7859 22.75 18.3408 22.5656 18.0126 22.2374C17.6844 21.9092 17.5 21.4641 17.5 21V12.25ZM12.25 15.75C12.25 15.2859 12.4344 14.8408 12.7626 14.5126C13.0908 14.1844 13.5359 14 14 14C14.4641 14 14.9092 14.1844 15.2374 14.5126C15.5656 14.8408 15.75 15.2859 15.75 15.75V21C15.75 21.4641 15.5656 21.9092 15.2374 22.2374C14.9092 22.5656 14.4641 22.75 14 22.75C13.5359 22.75 13.0908 22.5656 12.7626 22.2374C12.4344 21.9092 12.25 21.4641 12.25 21V15.75Z" fill="#DA1713"/>
        <path d="M7 2.625H5.25C4.32174 2.625 3.4315 2.99375 2.77513 3.65013C2.11875 4.3065 1.75 5.19674 1.75 6.125V24.5C1.75 25.4283 2.11875 26.3185 2.77513 26.9749C3.4315 27.6313 4.32174 28 5.25 28H22.75C23.6783 28 24.5685 27.6313 25.2249 26.9749C25.8813 26.3185 26.25 25.4283 26.25 24.5V6.125C26.25 5.19674 25.8813 4.3065 25.2249 3.65013C24.5685 2.99375 23.6783 2.625 22.75 2.625H21V4.375H22.75C23.2141 4.375 23.6592 4.55937 23.9874 4.88756C24.3156 5.21575 24.5 5.66087 24.5 6.125V24.5C24.5 24.9641 24.3156 25.4092 23.9874 25.7374C23.6592 26.0656 23.2141 26.25 22.75 26.25H5.25C4.78587 26.25 4.34075 26.0656 4.01256 25.7374C3.68437 25.4092 3.5 24.9641 3.5 24.5V6.125C3.5 5.66087 3.68437 5.21575 4.01256 4.88756C4.34075 4.55937 4.78587 4.375 5.25 4.375H7V2.625Z" fill="#DA1713"/>
        <path d="M16.625 1.75C16.8571 1.75 17.0796 1.84219 17.2437 2.00628C17.4078 2.17038 17.5 2.39294 17.5 2.625V4.375C17.5 4.60706 17.4078 4.82962 17.2437 4.99372C17.0796 5.15781 16.8571 5.25 16.625 5.25H11.375C11.1429 5.25 10.9204 5.15781 10.7563 4.99372C10.5922 4.82962 10.5 4.60706 10.5 4.375V2.625C10.5 2.39294 10.5922 2.17038 10.7563 2.00628C10.9204 1.84219 11.1429 1.75 11.375 1.75H16.625ZM11.375 0C10.6788 0 10.0111 0.276562 9.51884 0.768845C9.02656 1.26113 8.75 1.92881 8.75 2.625V4.375C8.75 5.07119 9.02656 5.73887 9.51884 6.23116C10.0111 6.72344 10.6788 7 11.375 7H16.625C17.3212 7 17.9889 6.72344 18.4812 6.23116C18.9734 5.73887 19.25 5.07119 19.25 4.375V2.625C19.25 1.92881 18.9734 1.26113 18.4812 0.768845C17.9889 0.276562 17.3212 0 16.625 0L11.375 0Z" fill="#DA1713"/>
    </symbol>

    <symbol id="licence" viewBox="0 0 28 28" fill="none" xmlns="http://www.w3.org/2000/svg">
        <path d="M16.9209 1.512L14.0001 0L11.0794 1.512L7.8279 2.0055L6.3544 4.9455L4.01465 7.2555L4.55015 10.5L4.01465 13.7445L6.3544 16.0545L7.8279 18.9945L11.0794 19.488L14.0001 21L16.9209 19.488L20.1724 18.9945L21.6459 16.0545L23.9856 13.7445L23.4501 10.5L23.9856 7.2555L21.6459 4.9455L20.1724 2.0055L16.9209 1.512ZM19.0139 3.59975L20.2109 5.9885L22.1114 7.8645L21.6774 10.5L22.1114 13.1355L20.2109 15.0115L19.0139 17.4002L16.3714 17.801L14.0001 19.0295L11.6289 17.801L8.9864 17.4002L7.7894 15.0115L5.8889 13.1355L6.32465 10.5L5.88715 7.8645L7.7894 5.9885L8.9864 3.59975L11.6289 3.199L14.0001 1.9705L16.3731 3.199L19.0139 3.59975Z" fill="#DA1713"/>
        <path d="M7 20.6394V27.9999L14 26.2499L21 27.9999V20.6394L17.4685 21.1749L14 22.9704L10.5315 21.1749L7 20.6394Z" fill="#DA1713"/>
    </symbol>

    <symbol id="certificate" viewBox="0 0 28 28" fill="none" xmlns="http://www.w3.org/2000/svg">
        <path d="M9.625 12.25C9.39294 12.25 9.17038 12.3422 9.00628 12.5063C8.84219 12.6704 8.75 12.8929 8.75 13.125C8.75 13.3571 8.84219 13.5796 9.00628 13.7437C9.17038 13.9078 9.39294 14 9.625 14H18.375C18.6071 14 18.8296 13.9078 18.9937 13.7437C19.1578 13.5796 19.25 13.3571 19.25 13.125C19.25 12.8929 19.1578 12.6704 18.9937 12.5063C18.8296 12.3422 18.6071 12.25 18.375 12.25H9.625ZM8.75 16.625C8.75 16.3929 8.84219 16.1704 9.00628 16.0063C9.17038 15.8422 9.39294 15.75 9.625 15.75H18.375C18.6071 15.75 18.8296 15.8422 18.9937 16.0063C19.1578 16.1704 19.25 16.3929 19.25 16.625C19.25 16.8571 19.1578 17.0796 18.9937 17.2437C18.8296 17.4078 18.6071 17.5 18.375 17.5H9.625C9.39294 17.5 9.17038 17.4078 9.00628 17.2437C8.84219 17.0796 8.75 16.8571 8.75 16.625ZM8.75 20.125C8.75 19.8929 8.84219 19.6704 9.00628 19.5063C9.17038 19.3422 9.39294 19.25 9.625 19.25H13.125C13.3571 19.25 13.5796 19.3422 13.7437 19.5063C13.9078 19.6704 14 19.8929 14 20.125C14 20.3571 13.9078 20.5796 13.7437 20.7437C13.5796 20.9078 13.3571 21 13.125 21H9.625C9.39294 21 9.17038 20.9078 9.00628 20.7437C8.84219 20.5796 8.75 20.3571 8.75 20.125Z" fill="#DA1713"/>
        <path d="M16.625 0H7C6.07174 0 5.1815 0.368749 4.52513 1.02513C3.86875 1.6815 3.5 2.57174 3.5 3.5V24.5C3.5 25.4283 3.86875 26.3185 4.52513 26.9749C5.1815 27.6313 6.07174 28 7 28H21C21.9283 28 22.8185 27.6313 23.4749 26.9749C24.1313 26.3185 24.5 25.4283 24.5 24.5V7.875L16.625 0ZM16.625 1.75V5.25C16.625 5.94619 16.9016 6.61387 17.3938 7.10616C17.8861 7.59844 18.5538 7.875 19.25 7.875H22.75V24.5C22.75 24.9641 22.5656 25.4092 22.2374 25.7374C21.9092 26.0656 21.4641 26.25 21 26.25H7C6.53587 26.25 6.09075 26.0656 5.76256 25.7374C5.43437 25.4092 5.25 24.9641 5.25 24.5V3.5C5.25 3.03587 5.43437 2.59075 5.76256 2.26256C6.09075 1.93437 6.53587 1.75 7 1.75H16.625Z" fill="#DA1713"/>
    </symbol>
</svg>