<svg>
    <symbol id="arrow" viewBox="0 0 29 29" fill="none" xmlns="http://www.w3.org/2000/svg">
        <path d="M20.3937 12.3768H27.346C27.4299 12.3769 27.5122 12.4008 27.5831 12.4459C27.6539 12.491 27.7105 12.5553 27.7461 12.6314C27.7817 12.7075 27.7949 12.7921 27.7842 12.8754C27.7734 12.9587 27.7392 13.0372 27.6854 13.1018L24.2093 17.2745C24.1678 17.3243 24.1159 17.3643 24.0572 17.3918C23.9986 17.4192 23.9346 17.4335 23.8698 17.4335C23.805 17.4335 23.7411 17.4192 23.6824 17.3918C23.6237 17.3643 23.5718 17.3243 23.5303 17.2745L20.0542 13.1018C20.0004 13.0372 19.9662 12.9587 19.9554 12.8754C19.9447 12.7921 19.9579 12.7075 19.9935 12.6314C20.0292 12.5553 20.0857 12.491 20.1566 12.4459C20.2274 12.4008 20.3097 12.3769 20.3937 12.3768ZM0.944307 15.9131H7.89658C7.98057 15.9131 8.06281 15.8891 8.13368 15.844C8.20455 15.7989 8.2611 15.7346 8.29672 15.6585C8.33234 15.5825 8.34555 15.4978 8.33481 15.4145C8.32407 15.3312 8.28981 15.2527 8.23606 15.1882L4.75992 11.0154C4.71844 10.9656 4.66653 10.9256 4.60786 10.8981C4.5492 10.8707 4.48522 10.8564 4.42044 10.8564C4.35567 10.8564 4.29168 10.8707 4.23302 10.8981C4.17436 10.9256 4.12245 10.9656 4.08096 11.0154L0.604827 15.1882C0.551072 15.2527 0.516817 15.3312 0.506073 15.4145C0.495329 15.4978 0.508541 15.5825 0.544161 15.6585C0.579782 15.7346 0.636337 15.7989 0.707204 15.844C0.77807 15.8891 0.860315 15.9131 0.944307 15.9131Z" fill="#DA1713"/>
        <path fill-rule="evenodd" clip-rule="evenodd" d="M14.1451 5.30475C11.401 5.30475 8.94681 6.55481 7.32544 8.5192C7.25304 8.61304 7.16251 8.69136 7.05924 8.74951C6.95596 8.80766 6.84204 8.84445 6.72426 8.8577C6.60648 8.87094 6.48724 8.86036 6.37363 8.8266C6.26002 8.79283 6.15436 8.73657 6.06293 8.66114C5.9715 8.58572 5.89617 8.49269 5.84141 8.38757C5.78666 8.28245 5.7536 8.1674 5.74421 8.04925C5.73481 7.9311 5.74927 7.81226 5.78672 7.69981C5.82418 7.58736 5.88386 7.48359 5.96222 7.39467C7.25682 5.82728 8.97438 4.66471 10.9106 4.04523C12.8468 3.42576 14.9202 3.37546 16.8842 3.90031C18.8482 4.42515 20.6201 5.50307 21.9892 7.00584C23.3583 8.50861 24.267 10.373 24.6071 12.3772H22.8089C22.4007 10.3807 21.3155 8.58637 19.7369 7.29768C18.1582 6.00899 16.183 5.305 14.1451 5.30475ZM5.48129 15.9135C5.81601 17.5483 6.60644 19.0551 7.76125 20.2598C8.91605 21.4645 10.3881 22.3178 12.0074 22.7213C13.6266 23.1248 15.327 23.0619 16.912 22.5399C18.4971 22.018 19.9021 21.0582 20.9648 19.7715C21.0372 19.6777 21.1277 19.5994 21.231 19.5412C21.3342 19.4831 21.4482 19.4463 21.5659 19.433C21.6837 19.4198 21.803 19.4304 21.9166 19.4641C22.0302 19.4979 22.1358 19.5542 22.2273 19.6296C22.3187 19.705 22.394 19.7981 22.4488 19.9032C22.5035 20.0083 22.5366 20.1233 22.546 20.2415C22.5554 20.3596 22.5409 20.4785 22.5035 20.5909C22.466 20.7034 22.4063 20.8072 22.328 20.8961C21.0334 22.4635 19.3158 23.626 17.3796 24.2455C15.4434 24.865 13.37 24.9153 11.406 24.3904C9.44198 23.8656 7.67006 22.7877 6.30097 21.2849C4.93188 19.7821 4.02324 17.9178 3.68311 15.9135H5.48129Z" fill="#DA1713"/>
    </symbol>

    <symbol id="clock" viewBox="0 0 29 29" fill="none" xmlns="http://www.w3.org/2000/svg">
        <path d="M28.29 14.145C28.29 17.8965 26.7997 21.4943 24.147 24.147C21.4943 26.7997 17.8965 28.29 14.145 28.29C10.3935 28.29 6.79568 26.7997 4.14297 24.147C1.49027 21.4943 0 17.8965 0 14.145C0 10.3935 1.49027 6.79568 4.14297 4.14297C6.79568 1.49027 10.3935 0 14.145 0C17.8965 0 21.4943 1.49027 24.147 4.14297C26.7997 6.79568 28.29 10.3935 28.29 14.145ZM14.145 6.18844C14.145 5.95397 14.0519 5.7291 13.8861 5.56331C13.7203 5.39752 13.4954 5.30438 13.2609 5.30438C13.0265 5.30438 12.8016 5.39752 12.6358 5.56331C12.47 5.7291 12.3769 5.95397 12.3769 6.18844V15.9131C12.3769 16.069 12.4182 16.222 12.4964 16.3568C12.5747 16.4915 12.6871 16.6032 12.8224 16.6805L19.0109 20.2167C19.214 20.3265 19.4519 20.3525 19.6739 20.2891C19.8959 20.2257 20.0843 20.078 20.1988 19.8776C20.3133 19.6772 20.3449 19.4399 20.2868 19.2165C20.2287 18.9931 20.0855 18.8013 19.8879 18.682L14.145 15.4004V6.18844Z" fill="#DA1713"/>
    </symbol>

    <symbol id="like" viewBox="0 0 23 29" fill="none" xmlns="http://www.w3.org/2000/svg">
        <path d="M9.15456 2.94181C9.26948 1.28886 10.8376 0.0107037 12.5276 0.431454L12.989 0.548132C13.8076 0.753204 14.5342 1.35428 14.7781 2.25235C15.167 3.69669 15.7204 6.6932 14.8877 10.2254C15.1481 10.19 15.4092 10.1605 15.6709 10.137C16.9314 10.0221 18.6214 10.0097 20.1188 10.5082C21.0346 10.8141 21.8761 11.7104 22.2402 12.7587C22.5655 13.6992 22.5231 14.813 21.8266 15.8224C21.9291 16.0328 22.0087 16.2502 22.0705 16.4641C22.2067 16.9415 22.2703 17.4665 22.2703 17.9774C22.2703 18.4883 22.2067 19.0134 22.0705 19.4907C22.0016 19.7294 21.9114 19.9733 21.7877 20.2049C22.0864 20.8891 21.9768 21.6528 21.7824 22.2344C21.5831 22.8081 21.2917 23.3455 20.9197 23.8255C21.0151 24.096 21.054 24.3788 21.054 24.6476C21.054 25.1885 20.8967 25.7542 20.6067 26.2598C20.0163 27.2976 18.8442 28.1426 17.1877 28.1426H11.0002C9.93065 28.1426 9.1086 27.9994 8.40853 27.7572C7.8066 27.5373 7.23137 27.2503 6.69371 26.9016L6.60885 26.8485C5.71785 26.3058 4.84276 25.7719 2.95292 25.5721C1.59874 25.4272 0.393066 24.3346 0.393066 22.839V15.7676C0.393066 14.2649 1.60405 13.236 2.79205 12.9108C4.29296 12.5024 5.57465 11.5212 6.56112 10.4181C7.55112 9.3114 8.17694 8.15699 8.39792 7.52233C8.74973 6.50581 9.02728 4.79983 9.15456 2.94358V2.94181Z" fill="#DA1713"/>
    </symbol>

    <symbol id="tools" viewBox="0 0 30 30" fill="none" xmlns="http://www.w3.org/2000/svg">
        <path d="M2.62503 0.857536L0.857178 2.62539L4.74646 8.07216C4.9102 8.30153 5.12639 8.48843 5.37702 8.61728C5.62765 8.74614 5.90546 8.8132 6.18727 8.81289H6.31102C6.54345 8.81271 6.77365 8.85837 6.98842 8.94725C7.20319 9.03613 7.39833 9.16649 7.56266 9.33088L12.2917 14.0599L7.6652 18.7518C6.87389 18.5189 6.03919 18.4735 5.22732 18.6194C4.41544 18.7652 3.64872 19.0983 2.98797 19.5921C2.32723 20.0859 1.79064 20.7268 1.42078 21.4642C1.05091 22.2015 0.857942 23.0148 0.857178 23.8397C0.858237 24.5998 1.02266 25.3507 1.33929 26.0417C1.65593 26.7327 2.11739 27.3475 2.6924 27.8446C3.26741 28.3416 3.94255 28.7093 4.67206 28.9226C5.40158 29.136 6.16843 29.19 6.92066 29.0811C7.67289 28.9722 8.39292 28.7029 9.03197 28.2914C9.67103 27.8799 10.2142 27.3359 10.6246 26.6962C11.035 26.0564 11.3032 25.336 11.4108 24.5836C11.5185 23.8312 11.4632 23.0644 11.2486 22.3352L15.9405 17.7088L17.6518 19.42L17.1126 21.0359C17.009 21.3473 16.9942 21.6815 17.0697 22.0009C17.1453 22.3203 17.3083 22.6124 17.5404 22.8444L23.4734 28.7773C23.8049 29.1087 24.2545 29.2949 24.7232 29.2949C25.192 29.2949 25.6416 29.1087 25.9731 28.7773L28.7769 25.9735C29.1084 25.642 29.2946 25.1924 29.2946 24.7236C29.2946 24.2548 29.1084 23.8053 28.7769 23.4737L22.844 17.5408C22.612 17.3086 22.3199 17.1456 22.0005 17.0701C21.6811 16.9945 21.3469 17.0094 21.0355 17.113L19.4197 17.6522L17.7225 15.955L22.4604 11.2826C23.2464 11.4924 24.07 11.5189 24.8678 11.36C25.6657 11.2012 26.4164 10.8612 27.062 10.3664C27.7077 9.87156 28.2311 9.23504 28.5919 8.50593C28.9527 7.77682 29.1412 6.97459 29.1429 6.16111C29.1429 5.68555 29.081 5.22414 28.9626 4.78748L25.1794 8.57247L22.0715 7.92897L21.428 4.82284L25.2129 1.03786C24.3126 0.795769 23.3643 0.795317 22.4637 1.03655C21.5631 1.27778 20.742 1.75216 20.0831 2.41189C19.4243 3.07161 18.951 3.89336 18.711 4.7943C18.471 5.69523 18.4728 6.64352 18.7161 7.54357L14.0489 12.2779L9.33052 7.56302C8.99896 7.23156 8.81264 6.78197 8.81254 6.31314V6.18763C8.81256 5.90611 8.74536 5.62866 8.61652 5.37836C8.48768 5.12806 8.30093 4.91215 8.0718 4.74859L2.62503 0.857536ZM19.6778 19.6781C19.7599 19.5958 19.8574 19.5305 19.9648 19.486C20.0722 19.4414 20.1873 19.4185 20.3036 19.4185C20.4199 19.4185 20.535 19.4414 20.6424 19.486C20.7498 19.5305 20.8473 19.5958 20.9294 19.6781L26.233 24.9817C26.3152 25.0639 26.3804 25.1615 26.4249 25.2688C26.4693 25.3762 26.4922 25.4913 26.4922 25.6075C26.4922 25.7238 26.4693 25.8389 26.4249 25.9462C26.3804 26.0536 26.3152 26.1512 26.233 26.2334C26.1508 26.3155 26.0532 26.3807 25.9459 26.4252C25.8385 26.4697 25.7234 26.4926 25.6072 26.4926C25.491 26.4926 25.3759 26.4697 25.2685 26.4252C25.1611 26.3807 25.0635 26.3155 24.9814 26.2334L19.6778 20.9298C19.5955 20.8477 19.5302 20.7501 19.4856 20.6427C19.441 20.5354 19.4181 20.4202 19.4181 20.304C19.4181 20.1877 19.441 20.0726 19.4856 19.9652C19.5302 19.8578 19.5955 19.7603 19.6778 19.6781ZM6.16075 20.304L6.99341 20.7318L7.92861 20.7778L8.43598 21.5644L9.22268 22.0718L9.26864 23.007L9.69646 23.8397L9.26864 24.6723L9.22268 25.6075L8.43598 26.1149L7.92861 26.9016L6.99341 26.9476L6.16075 27.3754L5.32809 26.9476L4.39289 26.9016L3.88552 26.1149L3.09882 25.6075L3.05286 24.6723L2.62503 23.8397L3.05286 23.007L3.09882 22.0718L3.88552 21.5644L4.39289 20.7778L5.32809 20.7318L6.16075 20.304Z" fill="#DA1713"/>
    </symbol>

</svg>