<svg>
    <symbol id="logo" viewBox="0 0 129 27" fill="none" xmlns="http://www.w3.org/2000/svg">
        <path d="M0 27H5.05291L6.99999 15.8261L8.99999 27H13L15 15.8261L17.0001 27L25 27L20 0.0217567H13L11.0001 11.8247L8.99999 0.0217567H2L0 27Z" fill="white"/>
        <path d="M27.2693 5.28988V27H44.2616V21.1257H36.322V15.8261H44.2616V10.8161H36.322V5.28988H44.2616V0.0217567H35.6204L27.2693 5.28988Z" fill="white"/>
        <path d="M46.1554 5.28988V27H60.198L67.2193 21.7319V7.78927C67.2193 6.21583 66.4787 4.73417 65.2201 3.78986L61.5316 1.02234C60.666 0.372863 59.613 0.0217567 58.5308 0.0217567H53.1767L46.1554 5.28988ZM55.0493 21.1257V5.28988L58.1243 7.85415V21.1257H55.0493Z" fill="white"/>
        <path d="M77.2559 21.1257V0L69.2315 0.0217567V21.9089L77.2559 27H79.262L87.2863 21.9089V0.0217567L79.262 0V21.1257H77.2559Z" fill="white"/>
        <path d="M89.0499 5.28988V27H106.042V21.1257H98.1027V15.8261H106.042V10.8161H98.1027V5.28988H106.042V0.0217567H97.4011L89.0499 5.28988Z" fill="white"/>
        <path d="M107.936 5.28988V27H121.979L129 21.7319V7.78927C129 6.21583 128.259 4.73416 127.001 3.78985L123.312 1.02234C122.447 0.372862 121.394 0.0217567 120.311 0.0217567H114.957L107.936 5.28988ZM116.83 21.1257V5.28988L119.905 7.85415V21.1257H116.83Z" fill="white"/>
    </symbol>

    <symbol id="phone" viewBox="0 0 28 28" fill="none" xmlns="http://www.w3.org/2000/svg">
        <path fill-rule="evenodd" clip-rule="evenodd" d="M3.29909 0.893652C3.60529 0.587908 3.97298 0.350729 4.37778 0.197835C4.78258 0.0449405 5.21526 -0.0201788 5.64713 0.00679262C6.079 0.033764 6.50021 0.15221 6.88285 0.354282C7.26548 0.556353 7.6008 0.837436 7.86659 1.1789L11.0078 5.2144C11.5836 5.95465 11.7866 6.9189 11.5591 7.8289L10.6018 11.6614C10.5523 11.8599 10.555 12.0678 10.6096 12.265C10.6642 12.4622 10.7688 12.6419 10.9133 12.7867L15.2131 17.0864C15.3581 17.2312 15.538 17.336 15.7356 17.3906C15.9331 17.4452 16.1413 17.4477 16.3401 17.3979L20.1708 16.4407C20.6199 16.3284 21.0886 16.3196 21.5416 16.4151C21.9945 16.5106 22.4198 16.7079 22.7853 16.9919L26.8208 20.1314C28.2716 21.2602 28.4046 23.4039 27.1061 24.7007L25.2966 26.5102C24.0016 27.8052 22.0661 28.3739 20.2618 27.7387C15.6439 26.1138 11.4511 23.4701 7.99434 20.0037C4.52809 16.5474 1.8844 12.3552 0.259336 7.7379C-0.374164 5.9354 0.194586 3.99815 1.48959 2.70315L3.29909 0.893652Z" fill="white"/>
    </symbol>

    <symbol id="cross" viewBox="0 0 18 18" fill="none" xmlns="http://www.w3.org/2000/svg">
        <path d="M0.615036 0.614975C0.731151 0.498567 0.86909 0.40621 1.02095 0.343194C1.17282 0.280178 1.33562 0.247742 1.50004 0.247742C1.66445 0.247742 1.82726 0.280178 1.97912 0.343194C2.13098 0.40621 2.26892 0.498567 2.38504 0.614975L9.00004 7.23248L15.615 0.614975C15.7313 0.498756 15.8692 0.406565 16.0211 0.343667C16.1729 0.280769 16.3357 0.248396 16.5 0.248396C16.6644 0.248396 16.8271 0.280769 16.979 0.343667C17.1308 0.406565 17.2688 0.498756 17.385 0.614975C17.5013 0.731195 17.5934 0.869168 17.6563 1.02102C17.7192 1.17287 17.7516 1.33562 17.7516 1.49998C17.7516 1.66434 17.7192 1.82709 17.6563 1.97893C17.5934 2.13078 17.5013 2.26876 17.385 2.38498L10.7675 8.99998L17.385 15.615C17.5013 15.7312 17.5934 15.8692 17.6563 16.021C17.7192 16.1729 17.7516 16.3356 17.7516 16.5C17.7516 16.6643 17.7192 16.8271 17.6563 16.9789C17.5934 17.1308 17.5013 17.2688 17.385 17.385C17.2688 17.5012 17.1308 17.5934 16.979 17.6563C16.8271 17.7192 16.6644 17.7516 16.5 17.7516C16.3357 17.7516 16.1729 17.7192 16.0211 17.6563C15.8692 17.5934 15.7313 17.5012 15.615 17.385L9.00004 10.7675L2.38504 17.385C2.26882 17.5012 2.13084 17.5934 1.979 17.6563C1.82715 17.7192 1.6644 17.7516 1.50004 17.7516C1.33568 17.7516 1.17293 17.7192 1.02108 17.6563C0.869229 17.5934 0.731256 17.5012 0.615036 17.385C0.498817 17.2688 0.406626 17.1308 0.343728 16.9789C0.28083 16.8271 0.248457 16.6643 0.248457 16.5C0.248457 16.3356 0.28083 16.1729 0.343728 16.021C0.406626 15.8692 0.498817 15.7312 0.615036 15.615L7.23254 8.99998L0.615036 2.38498C0.498628 2.26886 0.406271 2.13092 0.343255 1.97906C0.280239 1.8272 0.247803 1.66439 0.247803 1.49998C0.247803 1.33556 0.280239 1.17275 0.343255 1.02089C0.406271 0.869029 0.498628 0.73109 0.615036 0.614975Z" fill="white"/>
    </symbol>

    <symbol id="burger" viewBox="0 0 28 23" fill="none" xmlns="http://www.w3.org/2000/svg">
        <path fill-rule="evenodd" clip-rule="evenodd" d="M0.25 21.75C0.25 21.4185 0.381696 21.1005 0.616117 20.8661C0.850537 20.6317 1.16848 20.5 1.5 20.5H26.5C26.8315 20.5 27.1495 20.6317 27.3839 20.8661C27.6183 21.1005 27.75 21.4185 27.75 21.75C27.75 22.0815 27.6183 22.3995 27.3839 22.6339C27.1495 22.8683 26.8315 23 26.5 23H1.5C1.16848 23 0.850537 22.8683 0.616117 22.6339C0.381696 22.3995 0.25 22.0815 0.25 21.75ZM0.25 11.75C0.25 11.4185 0.381696 11.1005 0.616117 10.8661C0.850537 10.6317 1.16848 10.5 1.5 10.5H26.5C26.8315 10.5 27.1495 10.6317 27.3839 10.8661C27.6183 11.1005 27.75 11.4185 27.75 11.75C27.75 12.0815 27.6183 12.3995 27.3839 12.6339C27.1495 12.8683 26.8315 13 26.5 13H1.5C1.16848 13 0.850537 12.8683 0.616117 12.6339C0.381696 12.3995 0.25 12.0815 0.25 11.75ZM0.25 1.75C0.25 1.41848 0.381696 1.10054 0.616117 0.866117C0.850537 0.631696 1.16848 0.5 1.5 0.5H26.5C26.8315 0.5 27.1495 0.631696 27.3839 0.866117C27.6183 1.10054 27.75 1.41848 27.75 1.75C27.75 2.08152 27.6183 2.39946 27.3839 2.63388C27.1495 2.8683 26.8315 3 26.5 3H1.5C1.16848 3 0.850537 2.8683 0.616117 2.63388C0.381696 2.39946 0.25 2.08152 0.25 1.75Z" fill="white"/>
    </symbol>
</svg>