<svg>
    <symbol id="about" viewBox="0 0 16 16" xmlns="http://www.w3.org/2000/svg">
        <path d="M6.5 0C6.10218 0 5.72064 0.194505 5.43934 0.540726C5.15804 0.886947 5 1.35652 5 1.84615V2.46154H1.5C1.10218 2.46154 0.720644 2.65604 0.43934 3.00226C0.158035 3.34849 0 3.81806 0 4.30769L0 14.1538C0 14.6435 0.158035 15.1131 0.43934 15.4593C0.720644 15.8055 1.10218 16 1.5 16H14.5C14.8978 16 15.2794 15.8055 15.5607 15.4593C15.842 15.1131 16 14.6435 16 14.1538V4.30769C16 3.81806 15.842 3.34849 15.5607 3.00226C15.2794 2.65604 14.8978 2.46154 14.5 2.46154H11V1.84615C11 1.35652 10.842 0.886947 10.5607 0.540726C10.2794 0.194505 9.89782 0 9.5 0H6.5ZM6.5 1.23077H9.5C9.63261 1.23077 9.75979 1.2956 9.85355 1.41101C9.94732 1.52642 10 1.68294 10 1.84615V2.46154H6V1.84615C6 1.68294 6.05268 1.52642 6.14645 1.41101C6.24021 1.2956 6.36739 1.23077 6.5 1.23077ZM8.386 9.74031L15 7.57046V14.1538C15 14.3171 14.9473 14.4736 14.8536 14.589C14.7598 14.7044 14.6326 14.7692 14.5 14.7692H1.5C1.36739 14.7692 1.24021 14.7044 1.14645 14.589C1.05268 14.4736 1 14.3171 1 14.1538V7.56923L7.614 9.74031C7.86693 9.82321 8.13307 9.82321 8.386 9.74031ZM1.5 3.69231H14.5C14.6326 3.69231 14.7598 3.75714 14.8536 3.87255C14.9473 3.98796 15 4.14448 15 4.30769V6.29662L8.129 8.55138C8.04448 8.57916 7.95552 8.57916 7.871 8.55138L1 6.29662V4.30769C1 4.14448 1.05268 3.98796 1.14645 3.87255C1.24021 3.75714 1.36739 3.69231 1.5 3.69231Z"
              />
    </symbol>

    <symbol id="catalog" viewBox="0 0 16 16" xmlns="http://www.w3.org/2000/svg">
        <path d="M0 1.71429C0 1.25963 0.180612 0.823594 0.502103 0.502103C0.823594 0.180612 1.25963 0 1.71429 0H5.14286C5.59751 0 6.03355 0.180612 6.35504 0.502103C6.67653 0.823594 6.85714 1.25963 6.85714 1.71429V5.14286C6.85714 5.59751 6.67653 6.03355 6.35504 6.35504C6.03355 6.67653 5.59751 6.85714 5.14286 6.85714H1.71429C1.25963 6.85714 0.823594 6.67653 0.502103 6.35504C0.180612 6.03355 0 5.59751 0 5.14286V1.71429ZM1.71429 1.14286C1.56273 1.14286 1.41739 1.20306 1.31022 1.31022C1.20306 1.41739 1.14286 1.56273 1.14286 1.71429V5.14286C1.14286 5.29441 1.20306 5.43975 1.31022 5.54692C1.41739 5.65408 1.56273 5.71429 1.71429 5.71429H5.14286C5.29441 5.71429 5.43975 5.65408 5.54692 5.54692C5.65408 5.43975 5.71429 5.29441 5.71429 5.14286V1.71429C5.71429 1.56273 5.65408 1.41739 5.54692 1.31022C5.43975 1.20306 5.29441 1.14286 5.14286 1.14286H1.71429ZM9.14286 1.71429C9.14286 1.25963 9.32347 0.823594 9.64496 0.502103C9.96645 0.180612 10.4025 0 10.8571 0H14.2857C14.7404 0 15.1764 0.180612 15.4979 0.502103C15.8194 0.823594 16 1.25963 16 1.71429V5.14286C16 5.59751 15.8194 6.03355 15.4979 6.35504C15.1764 6.67653 14.7404 6.85714 14.2857 6.85714H10.8571C10.4025 6.85714 9.96645 6.67653 9.64496 6.35504C9.32347 6.03355 9.14286 5.59751 9.14286 5.14286V1.71429ZM10.8571 1.14286C10.7056 1.14286 10.5602 1.20306 10.4531 1.31022C10.3459 1.41739 10.2857 1.56273 10.2857 1.71429V5.14286C10.2857 5.29441 10.3459 5.43975 10.4531 5.54692C10.5602 5.65408 10.7056 5.71429 10.8571 5.71429H14.2857C14.4373 5.71429 14.5826 5.65408 14.6898 5.54692C14.7969 5.43975 14.8571 5.29441 14.8571 5.14286V1.71429C14.8571 1.56273 14.7969 1.41739 14.6898 1.31022C14.5826 1.20306 14.4373 1.14286 14.2857 1.14286H10.8571ZM0 10.8571C0 10.4025 0.180612 9.96645 0.502103 9.64496C0.823594 9.32347 1.25963 9.14286 1.71429 9.14286H5.14286C5.59751 9.14286 6.03355 9.32347 6.35504 9.64496C6.67653 9.96645 6.85714 10.4025 6.85714 10.8571V14.2857C6.85714 14.7404 6.67653 15.1764 6.35504 15.4979C6.03355 15.8194 5.59751 16 5.14286 16H1.71429C1.25963 16 0.823594 15.8194 0.502103 15.4979C0.180612 15.1764 0 14.7404 0 14.2857V10.8571ZM1.71429 10.2857C1.56273 10.2857 1.41739 10.3459 1.31022 10.4531C1.20306 10.5602 1.14286 10.7056 1.14286 10.8571V14.2857C1.14286 14.4373 1.20306 14.5826 1.31022 14.6898C1.41739 14.7969 1.56273 14.8571 1.71429 14.8571H5.14286C5.29441 14.8571 5.43975 14.7969 5.54692 14.6898C5.65408 14.5826 5.71429 14.4373 5.71429 14.2857V10.8571C5.71429 10.7056 5.65408 10.5602 5.54692 10.4531C5.43975 10.3459 5.29441 10.2857 5.14286 10.2857H1.71429ZM9.14286 10.8571C9.14286 10.4025 9.32347 9.96645 9.64496 9.64496C9.96645 9.32347 10.4025 9.14286 10.8571 9.14286H14.2857C14.7404 9.14286 15.1764 9.32347 15.4979 9.64496C15.8194 9.96645 16 10.4025 16 10.8571V14.2857C16 14.7404 15.8194 15.1764 15.4979 15.4979C15.1764 15.8194 14.7404 16 14.2857 16H10.8571C10.4025 16 9.96645 15.8194 9.64496 15.4979C9.32347 15.1764 9.14286 14.7404 9.14286 14.2857V10.8571ZM10.8571 10.2857C10.7056 10.2857 10.5602 10.3459 10.4531 10.4531C10.3459 10.5602 10.2857 10.7056 10.2857 10.8571V14.2857C10.2857 14.4373 10.3459 14.5826 10.4531 14.6898C10.5602 14.7969 10.7056 14.8571 10.8571 14.8571H14.2857C14.4373 14.8571 14.5826 14.7969 14.6898 14.6898C14.7969 14.5826 14.8571 14.4373 14.8571 14.2857V10.8571C14.8571 10.7056 14.7969 10.5602 14.6898 10.4531C14.5826 10.3459 14.4373 10.2857 14.2857 10.2857H10.8571Z"
              />
    </symbol>

    <symbol id="contacts" viewBox="0 0 12 16" xmlns="http://www.w3.org/2000/svg">
        <path d="M10.166 8.94C9.642 10.002 8.932 11.06 8.206 12.01C7.5173 12.9056 6.7809 13.7635 6 14.58C5.21908 13.7635 4.48268 12.9056 3.794 12.01C3.068 11.06 2.358 10.002 1.834 8.94C1.304 7.867 1 6.862 1 6C1 4.67392 1.52678 3.40215 2.46447 2.46447C3.40215 1.52678 4.67392 1 6 1C7.32608 1 8.59785 1.52678 9.53553 2.46447C10.4732 3.40215 11 4.67392 11 6C11 6.862 10.695 7.867 10.166 8.94ZM6 16C6 16 12 10.314 12 6C12 4.4087 11.3679 2.88258 10.2426 1.75736C9.11742 0.632141 7.5913 0 6 0C4.4087 0 2.88258 0.632141 1.75736 1.75736C0.632141 2.88258 2.37122e-08 4.4087 0 6C0 10.314 6 16 6 16Z"
              fill="#250404"/>
        <path d="M6 7.99999C5.46957 7.99999 4.96086 7.78928 4.58579 7.41421C4.21071 7.03914 4 6.53043 4 6C4 5.46956 4.21071 4.96086 4.58579 4.58578C4.96086 4.21071 5.46957 4 6 4C6.53043 4 7.03914 4.21071 7.41421 4.58578C7.78929 4.96086 8 5.46956 8 6C8 6.53043 7.78929 7.03914 7.41421 7.41421C7.03914 7.78928 6.53043 7.99999 6 7.99999ZM6 8.99999C6.79565 8.99999 7.55871 8.68392 8.12132 8.12131C8.68393 7.55871 9 6.79564 9 6C9 5.20435 8.68393 4.44129 8.12132 3.87868C7.55871 3.31607 6.79565 3 6 3C5.20435 3 4.44129 3.31607 3.87868 3.87868C3.31607 4.44129 3 5.20435 3 6C3 6.79564 3.31607 7.55871 3.87868 8.12131C4.44129 8.68392 5.20435 8.99999 6 8.99999Z"
              />
    </symbol>

    <symbol id="faq" viewBox="0 0 20 16" xmlns="http://www.w3.org/2000/svg">
        <path d="M18.75 16C18.75 16 20 16 20 14.6667C20 13.3333 18.75 9.33333 13.75 9.33333C8.75 9.33333 7.5 13.3333 7.5 14.6667C7.5 16 8.75 16 8.75 16H18.75ZM8.7775 14.6667C8.76827 14.6653 8.75909 14.6635 8.75 14.6613C8.75125 14.3093 8.95875 13.288 9.7 12.368C10.39 11.5053 11.6025 10.6667 13.75 10.6667C15.8962 10.6667 17.1087 11.5067 17.8 12.368C18.5413 13.288 18.7475 14.3107 18.75 14.6613L18.74 14.664C18.7342 14.665 18.7284 14.6659 18.7225 14.6667H8.7775ZM13.75 6.66667C14.413 6.66667 15.0489 6.38572 15.5178 5.88562C15.9866 5.38552 16.25 4.70724 16.25 4C16.25 3.29276 15.9866 2.61448 15.5178 2.11438C15.0489 1.61428 14.413 1.33333 13.75 1.33333C13.087 1.33333 12.4511 1.61428 11.9822 2.11438C11.5134 2.61448 11.25 3.29276 11.25 4C11.25 4.70724 11.5134 5.38552 11.9822 5.88562C12.4511 6.38572 13.087 6.66667 13.75 6.66667ZM17.5 4C17.5 4.52529 17.403 5.04543 17.2145 5.53073C17.0261 6.01604 16.7499 6.45699 16.4017 6.82843C16.0534 7.19986 15.64 7.4945 15.1851 7.69552C14.7301 7.89654 14.2425 8 13.75 8C13.2575 8 12.7699 7.89654 12.3149 7.69552C11.86 7.4945 11.4466 7.19986 11.0983 6.82843C10.7501 6.45699 10.4739 6.01604 10.2855 5.53073C10.097 5.04543 10 4.52529 10 4C10 2.93913 10.3951 1.92172 11.0983 1.17157C11.8016 0.421427 12.7554 0 13.75 0C14.7446 0 15.6984 0.421427 16.4017 1.17157C17.1049 1.92172 17.5 2.93913 17.5 4ZM8.67 9.70667C8.16998 9.53872 7.65454 9.42831 7.1325 9.37733C6.83916 9.34758 6.54466 9.3329 6.25 9.33333C1.25 9.33333 0 13.3333 0 14.6667C0 15.556 0.41625 16 1.25 16H6.52C6.33469 15.5838 6.24228 15.1274 6.25 14.6667C6.25 13.32 6.72125 11.944 7.6125 10.7947C7.91625 10.4027 8.27 10.036 8.67 9.70667ZM6.15 10.6667C5.41019 11.8524 5.01055 13.2424 5 14.6667H1.25C1.25 14.32 1.455 13.2933 2.2 12.368C2.88125 11.52 4.065 10.6933 6.15 10.668V10.6667ZM1.875 4.66667C1.875 3.6058 2.27009 2.58839 2.97335 1.83824C3.67661 1.08809 4.63044 0.666667 5.625 0.666667C6.61956 0.666667 7.57339 1.08809 8.27665 1.83824C8.97991 2.58839 9.375 3.6058 9.375 4.66667C9.375 5.72753 8.97991 6.74495 8.27665 7.49509C7.57339 8.24524 6.61956 8.66667 5.625 8.66667C4.63044 8.66667 3.67661 8.24524 2.97335 7.49509C2.27009 6.74495 1.875 5.72753 1.875 4.66667ZM5.625 2C4.96196 2 4.32607 2.28095 3.85723 2.78105C3.38839 3.28115 3.125 3.95942 3.125 4.66667C3.125 5.37391 3.38839 6.05219 3.85723 6.55229C4.32607 7.05238 4.96196 7.33333 5.625 7.33333C6.28804 7.33333 6.92393 7.05238 7.39277 6.55229C7.86161 6.05219 8.125 5.37391 8.125 4.66667C8.125 3.95942 7.86161 3.28115 7.39277 2.78105C6.92393 2.28095 6.28804 2 5.625 2Z"
              />
    </symbol>

    <symbol id="pay" viewBox="0 0 20 16" xmlns="http://www.w3.org/2000/svg">
        <path d="M2.72988e-09 1.99928C2.72988e-09 1.46904 0.197544 0.960514 0.549175 0.585576C0.900805 0.210638 1.37772 0 1.875 0H13.125C13.6223 0 14.0992 0.210638 14.4508 0.585576C14.8025 0.960514 15 1.46904 15 1.99928V3.99856H16.275C16.5559 3.99883 16.8332 4.0664 17.0863 4.19629C17.3395 4.32617 17.562 4.51505 17.7375 4.74896L19.5887 7.21474C19.8551 7.56952 20.0002 8.01049 20 8.46496V11.3293C20 11.8595 19.8025 12.368 19.4508 12.743C19.0992 13.1179 18.6223 13.3285 18.125 13.3285H17.5C17.5 14.0355 17.2366 14.7136 16.7678 15.2135C16.2989 15.7134 15.663 15.9942 15 15.9942C14.337 15.9942 13.7011 15.7134 13.2322 15.2135C12.7634 14.7136 12.5 14.0355 12.5 13.3285H6.25C6.25072 13.6839 6.18481 14.0357 6.05615 14.3635C5.92749 14.6913 5.73868 14.9883 5.50081 15.2371C5.26294 15.486 4.98082 15.6816 4.67102 15.8125C4.36123 15.9434 4.03002 16.007 3.69687 15.9994C3.36371 15.9918 3.03533 15.9133 2.73104 15.7685C2.42674 15.6237 2.15267 15.4155 1.92494 15.1561C1.6972 14.8967 1.5204 14.5914 1.40492 14.2581C1.28944 13.9248 1.23762 13.5702 1.2525 13.2152C0.88631 13.0778 0.569154 12.8226 0.344805 12.4848C0.120457 12.1469 -2.09399e-05 11.7432 2.72988e-09 11.3293L2.72988e-09 1.99928ZM1.6175 11.937C1.8435 11.5425 2.16189 11.2175 2.54137 10.9939C2.92086 10.7703 3.34837 10.6558 3.78191 10.6617C4.21544 10.6676 4.64007 10.7937 5.01407 11.0276C5.38806 11.2615 5.69854 11.5951 5.915 11.9957H12.835C13.0549 11.5909 13.3703 11.2545 13.75 11.02V1.99928C13.75 1.82253 13.6842 1.65303 13.5669 1.52805C13.4497 1.40307 13.2908 1.33285 13.125 1.33285H1.875C1.70924 1.33285 1.55027 1.40307 1.43306 1.52805C1.31585 1.65303 1.25 1.82253 1.25 1.99928V11.3293C1.2499 11.4575 1.28452 11.5831 1.34971 11.6909C1.4149 11.7987 1.50788 11.8842 1.6175 11.937ZM15 10.6628C15.4388 10.6628 15.8699 10.786 16.25 11.02C16.63 11.2539 16.9456 11.5905 17.165 11.9957H18.125C18.2908 11.9957 18.4497 11.9255 18.5669 11.8005C18.6842 11.6755 18.75 11.506 18.75 11.3293V8.46362C18.7497 8.31239 18.7013 8.16574 18.6125 8.04777L16.7625 5.58199C16.704 5.50394 16.6299 5.4409 16.5455 5.39752C16.4611 5.35415 16.3687 5.33156 16.275 5.33142H15V10.6628ZM3.75 11.9957C3.41848 11.9957 3.10054 12.1361 2.86612 12.3861C2.6317 12.636 2.5 12.975 2.5 13.3285C2.5 13.682 2.6317 14.0211 2.86612 14.271C3.10054 14.521 3.41848 14.6614 3.75 14.6614C4.08152 14.6614 4.39946 14.521 4.63388 14.271C4.8683 14.0211 5 13.682 5 13.3285C5 12.975 4.8683 12.636 4.63388 12.3861C4.39946 12.1361 4.08152 11.9957 3.75 11.9957ZM15 11.9957C14.6685 11.9957 14.3505 12.1361 14.1161 12.3861C13.8817 12.636 13.75 12.975 13.75 13.3285C13.75 13.682 13.8817 14.0211 14.1161 14.271C14.3505 14.521 14.6685 14.6614 15 14.6614C15.3315 14.6614 15.6495 14.521 15.8839 14.271C16.1183 14.0211 16.25 13.682 16.25 13.3285C16.25 12.975 16.1183 12.636 15.8839 12.3861C15.6495 12.1361 15.3315 11.9957 15 11.9957Z"
              />
    </symbol>

    <symbol id="price" viewBox="0 0 16 16" xmlns="http://www.w3.org/2000/svg">
        <path d="M12.5 3C12.6326 3 12.7598 3.05268 12.8536 3.14645C12.9473 3.24021 13 3.36739 13 3.5C13 3.63261 12.9473 3.75978 12.8536 3.85355C12.7598 3.94732 12.6326 4 12.5 4H7.5C7.36739 4 7.24021 3.94732 7.14645 3.85355C7.05268 3.75978 7 3.63261 7 3.5C7 3.36739 7.05268 3.24021 7.14645 3.14645C7.24021 3.05268 7.36739 3 7.5 3H12.5ZM12.5 6C12.6326 6 12.7598 6.05268 12.8536 6.14644C12.9473 6.24021 13 6.36739 13 6.5C13 6.6326 12.9473 6.75978 12.8536 6.85355C12.7598 6.94732 12.6326 7 12.5 7H7.5C7.36739 7 7.24021 6.94732 7.14645 6.85355C7.05268 6.75978 7 6.6326 7 6.5C7 6.36739 7.05268 6.24021 7.14645 6.14644C7.24021 6.05268 7.36739 6 7.5 6H12.5ZM13 9.49999C13 9.36739 12.9473 9.24021 12.8536 9.14644C12.7598 9.05267 12.6326 8.99999 12.5 8.99999H7.5C7.36739 8.99999 7.24021 9.05267 7.14645 9.14644C7.05268 9.24021 7 9.36739 7 9.49999C7 9.6326 7.05268 9.75978 7.14645 9.85355C7.24021 9.94732 7.36739 9.99999 7.5 9.99999H12.5C12.6326 9.99999 12.7598 9.94732 12.8536 9.85355C12.9473 9.75978 13 9.6326 13 9.49999ZM12.5 12C12.6326 12 12.7598 12.0527 12.8536 12.1464C12.9473 12.2402 13 12.3674 13 12.5C13 12.6326 12.9473 12.7598 12.8536 12.8535C12.7598 12.9473 12.6326 13 12.5 13H7.5C7.36739 13 7.24021 12.9473 7.14645 12.8535C7.05268 12.7598 7 12.6326 7 12.5C7 12.3674 7.05268 12.2402 7.14645 12.1464C7.24021 12.0527 7.36739 12 7.5 12H12.5Z"
              />
        <path d="M16 2C16 1.46957 15.7893 0.960859 15.4142 0.585786C15.0391 0.210714 14.5304 0 14 0L2 0C1.46957 0 0.960859 0.210714 0.585786 0.585786C0.210714 0.960859 0 1.46957 0 2L0 14C0 14.5304 0.210714 15.0391 0.585786 15.4142C0.960859 15.7893 1.46957 16 2 16H14C14.5304 16 15.0391 15.7893 15.4142 15.4142C15.7893 15.0391 16 14.5304 16 14V2ZM4 1V15H2C1.73478 15 1.48043 14.8946 1.29289 14.7071C1.10536 14.5196 1 14.2652 1 14V2C1 1.73478 1.10536 1.48043 1.29289 1.29289C1.48043 1.10536 1.73478 1 2 1H4ZM5 1H14C14.2652 1 14.5196 1.10536 14.7071 1.29289C14.8946 1.48043 15 1.73478 15 2V14C15 14.2652 14.8946 14.5196 14.7071 14.7071C14.5196 14.8946 14.2652 15 14 15H5V1Z"
              />
    </symbol>
</svg>