<svg width="370" height="77" viewBox="0 0 370 77" fill="none" xmlns="http://www.w3.org/2000/svg">
<path d="M0 77H14.4928L20.0775 45.1337L25.8139 77H37.2868L43.0232 45.1337L48.76 77L71.7053 77L57.3643 0.0620469H37.2868L31.5508 33.7224L25.8139 0.0620469H5.73643L0 77Z" fill="#F7F7F7"/>
<path d="M78.2142 15.086V77H126.952V60.2474H104.179V45.1337H126.952V30.8459H104.179V15.086H126.952V0.0620469H102.167L78.2142 15.086Z" fill="#F7F7F7"/>
<path d="M132.384 15.086V77H172.661L192.8 61.9761V17.5939C192.8 16.0156 192.054 14.53 190.789 13.5863L173.991 1.05441C173.128 0.410118 172.079 0.0620469 171.001 0.0620469H152.522L132.384 15.086ZM157.893 60.2474V15.086L166.713 22.3989V60.2474H157.893Z" fill="#F7F7F7"/>
<path d="M221.587 60.2474V0L198.571 0.0620469V62.481L221.587 77H227.34L250.356 62.481V0.0620469L227.34 0V60.2474H221.587Z" fill="#F7F7F7"/>
<path d="M255.415 15.0859V77H304.152V60.2474H281.38V45.1337H304.152V30.8459H281.38V15.0859H304.152V0.0620469H279.367L255.415 15.0859Z" fill="#F7F7F7"/>
<path d="M309.584 15.0859V77H349.861L370 61.9761V17.5939C370 16.0156 369.255 14.53 367.99 13.5863L351.192 1.05441C350.328 0.410118 349.279 0.0620469 348.202 0.0620469H329.723L309.584 15.0859ZM335.094 60.2474V15.0859L343.913 22.3989V60.2474H335.094Z" fill="#F7F7F7"/>
</svg>
