<svg width="20" height="16" viewBox="0 0 20 16" fill="none" xmlns="http://www.w3.org/2000/svg">
<path d="M2.72988e-09 1.99928C2.72988e-09 1.46904 0.197544 0.960514 0.549175 0.585576C0.900805 0.210638 1.37772 0 1.875 0H13.125C13.6223 0 14.0992 0.210638 14.4508 0.585576C14.8025 0.960514 15 1.46904 15 1.99928V3.99856H16.275C16.5559 3.99883 16.8332 4.0664 17.0863 4.19629C17.3395 4.32617 17.562 4.51505 17.7375 4.74896L19.5887 7.21474C19.8551 7.56952 20.0002 8.01049 20 8.46496V11.3293C20 11.8595 19.8025 12.368 19.4508 12.743C19.0992 13.1179 18.6223 13.3285 18.125 13.3285H17.5C17.5 14.0355 17.2366 14.7136 16.7678 15.2135C16.2989 15.7134 15.663 15.9942 15 15.9942C14.337 15.9942 13.7011 15.7134 13.2322 15.2135C12.7634 14.7136 12.5 14.0355 12.5 13.3285H6.25C6.25072 13.6839 6.18481 14.0357 6.05615 14.3635C5.92749 14.6913 5.73868 14.9883 5.50081 15.2371C5.26294 15.486 4.98082 15.6816 4.67102 15.8125C4.36123 15.9434 4.03002 16.007 3.69687 15.9994C3.36371 15.9918 3.03533 15.9133 2.73104 15.7685C2.42674 15.6237 2.15267 15.4155 1.92494 15.1561C1.6972 14.8967 1.5204 14.5914 1.40492 14.2581C1.28944 13.9248 1.23762 13.5702 1.2525 13.2152C0.88631 13.0778 0.569154 12.8226 0.344805 12.4848C0.120457 12.1469 -2.09399e-05 11.7432 2.72988e-09 11.3293L2.72988e-09 1.99928ZM1.6175 11.937C1.8435 11.5425 2.16189 11.2175 2.54137 10.9939C2.92086 10.7703 3.34837 10.6558 3.78191 10.6617C4.21544 10.6676 4.64007 10.7937 5.01407 11.0276C5.38806 11.2615 5.69854 11.5951 5.915 11.9957H12.835C13.0549 11.5909 13.3703 11.2545 13.75 11.02V1.99928C13.75 1.82253 13.6842 1.65303 13.5669 1.52805C13.4497 1.40307 13.2908 1.33285 13.125 1.33285H1.875C1.70924 1.33285 1.55027 1.40307 1.43306 1.52805C1.31585 1.65303 1.25 1.82253 1.25 1.99928V11.3293C1.2499 11.4575 1.28452 11.5831 1.34971 11.6909C1.4149 11.7987 1.50788 11.8842 1.6175 11.937ZM15 10.6628C15.4388 10.6628 15.8699 10.786 16.25 11.02C16.63 11.2539 16.9456 11.5905 17.165 11.9957H18.125C18.2908 11.9957 18.4497 11.9255 18.5669 11.8005C18.6842 11.6755 18.75 11.506 18.75 11.3293V8.46362C18.7497 8.31239 18.7013 8.16574 18.6125 8.04777L16.7625 5.58199C16.704 5.50394 16.6299 5.4409 16.5455 5.39752C16.4611 5.35415 16.3687 5.33156 16.275 5.33142H15V10.6628ZM3.75 11.9957C3.41848 11.9957 3.10054 12.1361 2.86612 12.3861C2.6317 12.636 2.5 12.975 2.5 13.3285C2.5 13.682 2.6317 14.0211 2.86612 14.271C3.10054 14.521 3.41848 14.6614 3.75 14.6614C4.08152 14.6614 4.39946 14.521 4.63388 14.271C4.8683 14.0211 5 13.682 5 13.3285C5 12.975 4.8683 12.636 4.63388 12.3861C4.39946 12.1361 4.08152 11.9957 3.75 11.9957ZM15 11.9957C14.6685 11.9957 14.3505 12.1361 14.1161 12.3861C13.8817 12.636 13.75 12.975 13.75 13.3285C13.75 13.682 13.8817 14.0211 14.1161 14.271C14.3505 14.521 14.6685 14.6614 15 14.6614C15.3315 14.6614 15.6495 14.521 15.8839 14.271C16.1183 14.0211 16.25 13.682 16.25 13.3285C16.25 12.975 16.1183 12.636 15.8839 12.3861C15.6495 12.1361 15.3315 11.9957 15 11.9957Z" fill="#250404"/>
</svg>
