<svg width="28" height="28" viewBox="0 0 28 28" fill="none" xmlns="http://www.w3.org/2000/svg">
<path fill-rule="evenodd" clip-rule="evenodd" d="M3.29909 0.893652C3.60529 0.587908 3.97298 0.350729 4.37778 0.197835C4.78258 0.0449405 5.21526 -0.0201788 5.64713 0.00679262C6.079 0.033764 6.50021 0.15221 6.88285 0.354282C7.26548 0.556353 7.6008 0.837436 7.86659 1.1789L11.0078 5.2144C11.5836 5.95465 11.7866 6.9189 11.5591 7.8289L10.6018 11.6614C10.5523 11.8599 10.555 12.0678 10.6096 12.265C10.6642 12.4622 10.7688 12.6419 10.9133 12.7867L15.2131 17.0864C15.3581 17.2312 15.538 17.336 15.7356 17.3906C15.9331 17.4452 16.1413 17.4477 16.3401 17.3979L20.1708 16.4407C20.6199 16.3284 21.0886 16.3196 21.5416 16.4151C21.9945 16.5106 22.4198 16.7079 22.7853 16.9919L26.8208 20.1314C28.2716 21.2602 28.4046 23.4039 27.1061 24.7007L25.2966 26.5102C24.0016 27.8052 22.0661 28.3739 20.2618 27.7387C15.6439 26.1138 11.4511 23.4701 7.99434 20.0037C4.52809 16.5474 1.8844 12.3552 0.259336 7.7379C-0.374164 5.9354 0.194586 3.99815 1.48959 2.70315L3.29909 0.893652Z" fill="white"/>
</svg>
