<svg width="1920" height="62" viewBox="0 0 1920 62" fill="none" xmlns="http://www.w3.org/2000/svg">
<path d="M0 62H12.3777L17.1473 36.7553L22.0465 62H31.8449L36.7441 36.7553L41.6437 62L61.2402 62L48.9922 1.04915H31.8449L26.9461 27.7152L22.0465 1.04915H4.89922L0 62Z" fill="white" fill-opacity="0.15"/>
<path d="M66.7991 12.9512V62H108.424V48.7284H88.9749V36.7553H108.424V25.4363H88.9749V12.9512H108.424V1.04915H87.2562L66.7991 12.9512Z" fill="white" fill-opacity="0.15"/>
<path d="M113.063 12.9512V62H147.462L164.661 50.0979V15.5716C164.661 13.9305 163.856 12.3939 162.507 11.4601L148.746 1.9376C147.91 1.35908 146.917 1.04915 145.901 1.04915H130.262L113.063 12.9512ZM134.849 48.7284V12.9512L142.382 18.7446V48.7284H134.849Z" fill="white" fill-opacity="0.15"/>
<path d="M189.247 48.7284V1L169.59 1.04915V50.498L189.247 62H194.161L213.818 50.498V1.04915L194.161 1V48.7284H189.247Z" fill="white" fill-opacity="0.15"/>
<path d="M218.138 12.9512V62H259.763V48.7284H240.314V36.7553H259.763V25.4363H240.314V12.9512H259.763V1.04915H238.595L218.138 12.9512Z" fill="white" fill-opacity="0.15"/>
<path d="M264.402 12.9512V62H298.801L316 50.0979V15.5716C316 13.9305 315.195 12.3939 313.845 11.4601L300.084 1.9376C299.248 1.35908 298.256 1.04915 297.239 1.04915H281.601L264.402 12.9512ZM286.188 48.7284V12.9512L293.721 18.7446V48.7284H286.188Z" fill="white" fill-opacity="0.15"/>
<path d="M962 61H974.417L979.202 35.7553L984.116 61H993.946L998.86 35.7553L1003.78 61L1023.43 61L1011.15 0.049154H993.946L989.031 26.7152L984.116 0.049154H966.915L962 61Z" fill="white" fill-opacity="0.15"/>
<path d="M1029.01 11.9512V61H1070.77V47.7284H1051.26V35.7553H1070.77V24.4363H1051.26V11.9512H1070.77V0.049154H1049.53L1029.01 11.9512Z" fill="white" fill-opacity="0.15"/>
<path d="M1075.42 11.9512V61H1109.93L1127.18 49.0979V14.5763C1127.18 12.9326 1126.37 11.3939 1125.02 10.4606L1111.21 0.933404C1110.38 0.357547 1109.39 0.049154 1108.37 0.049154H1092.67L1075.42 11.9512ZM1097.28 47.7284V11.9512L1104.83 17.7446V47.7284H1097.28Z" fill="white" fill-opacity="0.15"/>
<path d="M1151.85 47.7284V0L1132.13 0.049154V49.498L1151.85 61H1156.78L1176.49 49.498V0.049154L1156.78 0V47.7284H1151.85Z" fill="white" fill-opacity="0.15"/>
<path d="M1180.83 11.9512V61H1222.58V47.7284H1203.07V35.7553H1222.58V24.4363H1203.07V11.9512H1222.58V0.049154H1201.35L1180.83 11.9512Z" fill="white" fill-opacity="0.15"/>
<path d="M1227.24 11.9512V61H1261.75L1279 49.0979V14.5763C1279 12.9326 1278.19 11.3939 1276.84 10.4606L1263.03 0.933404C1262.19 0.357546 1261.2 0.049154 1260.19 0.049154H1244.49L1227.24 11.9512ZM1249.09 47.7284V11.9512L1256.65 17.7446V47.7284H1249.09Z" fill="white" fill-opacity="0.15"/>
<path d="M320 62H332.417L337.202 36.7553L342.116 62H351.946L356.86 36.7553L361.776 62L381.434 62L369.147 1.04915H351.946L347.031 27.7152L342.116 1.04915H324.915L320 62Z" fill="white" fill-opacity="0.15"/>
<path d="M387.011 12.9512V62H428.767V48.7284H409.257V36.7553H428.767V25.4363H409.257V12.9512H428.767V1.04915H407.532L387.011 12.9512Z" fill="white" fill-opacity="0.15"/>
<path d="M433.421 12.9512V62H467.928L485.182 50.0979V15.5763C485.182 13.9326 484.375 12.3939 483.021 11.4606L469.21 1.9334C468.376 1.35755 467.385 1.04915 466.371 1.04915H450.675L433.421 12.9512ZM455.276 48.7284V12.9512L462.833 18.7446V48.7284H455.276Z" fill="white" fill-opacity="0.15"/>
<path d="M509.846 48.7284V1L490.127 1.04915V50.498L509.846 62H514.776L534.494 50.498V1.04915L514.776 1V48.7284H509.846Z" fill="white" fill-opacity="0.15"/>
<path d="M538.828 12.9512V62H580.585V48.7284H561.074V36.7553H580.585V25.4363H561.074V12.9512H580.585V1.04915H559.35L538.828 12.9512Z" fill="white" fill-opacity="0.15"/>
<path d="M585.238 12.9512V62H619.746L637 50.0979V15.5763C637 13.9326 636.192 12.3939 634.839 11.4606L621.028 1.9334C620.193 1.35755 619.203 1.04915 618.189 1.04915H602.492L585.238 12.9512ZM607.094 48.7284V12.9512L614.65 18.7446V48.7284H607.094Z" fill="white" fill-opacity="0.15"/>
<path d="M1283 61H1295.42L1300.2 35.7553L1305.12 61H1314.95L1319.86 35.7553L1324.78 61L1344.43 61L1332.15 0.049154H1314.95L1310.03 26.7152L1305.12 0.049154H1287.91L1283 61Z" fill="white" fill-opacity="0.15"/>
<path d="M1350.01 11.9512V61H1391.77V47.7284H1372.26V35.7553H1391.77V24.4363H1372.26V11.9512H1391.77V0.049154H1370.53L1350.01 11.9512Z" fill="white" fill-opacity="0.15"/>
<path d="M1396.42 11.9512V61H1430.93L1448.18 49.0979V14.5763C1448.18 12.9326 1447.37 11.3939 1446.02 10.4606L1432.21 0.933404C1431.38 0.357546 1430.39 0.049154 1429.37 0.049154H1413.67L1396.42 11.9512ZM1418.28 47.7284V11.9512L1425.83 17.7446V47.7284H1418.28Z" fill="white" fill-opacity="0.15"/>
<path d="M1472.85 47.7284V0L1453.13 0.049154V49.498L1472.85 61H1477.78L1497.49 49.498V0.049154L1477.78 0V47.7284H1472.85Z" fill="white" fill-opacity="0.15"/>
<path d="M1501.83 11.9512V61H1543.58V47.7284H1524.07V35.7553H1543.58V24.4363H1524.07V11.9512H1543.58V0.049154H1522.35L1501.83 11.9512Z" fill="white" fill-opacity="0.15"/>
<path d="M1548.24 11.9512V61H1582.75L1600 49.0979V14.5763C1600 12.9326 1599.19 11.3939 1597.84 10.4606L1584.03 0.933402C1583.19 0.357545 1582.2 0.049154 1581.19 0.049154H1565.49L1548.24 11.9512ZM1570.09 47.7284V11.9512L1577.65 17.7446V47.7284H1570.09Z" fill="white" fill-opacity="0.15"/>
<path d="M641 62H653.417L658.202 36.7553L663.116 62H672.946L677.86 36.7553L682.776 62L702.434 62L690.147 1.04915H672.946L668.031 27.7152L663.116 1.04915H645.915L641 62Z" fill="white" fill-opacity="0.15"/>
<path d="M708.011 12.9512V62H749.767V48.7284H730.256V36.7553H749.767V25.4363H730.256V12.9512H749.767V1.04915H728.532L708.011 12.9512Z" fill="white" fill-opacity="0.15"/>
<path d="M754.421 12.9512V62H788.928L806.182 50.0979V15.5763C806.182 13.9326 805.375 12.3939 804.021 11.4606L790.21 1.9334C789.376 1.35755 788.385 1.04915 787.371 1.04915H771.675L754.421 12.9512ZM776.276 48.7284V12.9512L783.833 18.7446V48.7284H776.276Z" fill="white" fill-opacity="0.15"/>
<path d="M830.846 48.7284V1L811.127 1.04915V50.498L830.846 62H835.776L855.494 50.498V1.04915L835.776 1V48.7284H830.846Z" fill="white" fill-opacity="0.15"/>
<path d="M859.828 12.9512V62H901.585V48.7284H882.074V36.7553H901.585V25.4363H882.074V12.9512H901.585V1.04915H880.35L859.828 12.9512Z" fill="white" fill-opacity="0.15"/>
<path d="M906.238 12.9512V62H940.746L958 50.0979V15.5763C958 13.9326 957.192 12.3939 955.839 11.4606L942.028 1.9334C941.193 1.35755 940.203 1.04915 939.189 1.04915H923.492L906.238 12.9512ZM928.094 48.7284V12.9512L935.65 18.7446V48.7284H928.094Z" fill="white" fill-opacity="0.15"/>
<path d="M1604 61H1616.38L1621.15 35.7553L1626.05 61H1635.84L1640.74 35.7553L1645.64 61L1665.24 61L1652.99 0.049154H1635.84L1630.95 26.7152L1626.05 0.049154H1608.9L1604 61Z" fill="white" fill-opacity="0.15"/>
<path d="M1670.8 11.9512V61H1712.42V47.7284H1692.97V35.7553H1712.42V24.4363H1692.97V11.9512H1712.42V0.049154H1691.26L1670.8 11.9512Z" fill="white" fill-opacity="0.15"/>
<path d="M1717.06 11.9512V61H1751.46L1768.66 49.0979V14.5716C1768.66 12.9305 1767.86 11.3939 1766.51 10.4601L1752.75 0.937604C1751.91 0.359079 1750.92 0.049154 1749.9 0.049154H1734.26L1717.06 11.9512ZM1738.85 47.7284V11.9512L1746.38 17.7446V47.7284H1738.85Z" fill="white" fill-opacity="0.15"/>
<path d="M1793.25 47.7284V0L1773.59 0.049154V49.498L1793.25 61H1798.16L1817.82 49.498V0.049154L1798.16 0V47.7284H1793.25Z" fill="white" fill-opacity="0.15"/>
<path d="M1822.14 11.9512V61H1863.76V47.7284H1844.31V35.7553H1863.76V24.4363H1844.31V11.9512H1863.76V0.049154H1842.59L1822.14 11.9512Z" fill="white" fill-opacity="0.15"/>
<path d="M1868.4 11.9512V61H1902.8L1920 49.0979V14.5716C1920 12.9305 1919.19 11.3939 1917.85 10.4601L1904.08 0.9376C1903.25 0.359076 1902.26 0.049154 1901.24 0.049154H1885.6L1868.4 11.9512ZM1890.19 47.7284V11.9512L1897.72 17.7446V47.7284H1890.19Z" fill="white" fill-opacity="0.15"/>
</svg>
